<svg width="40" height="40" viewBox="0 0 40 40" fill="none" xmlns="http://www.w3.org/2000/svg">
<path d="M0 20C0 8.9543 8.9543 0 20 0C31.0457 0 40 8.9543 40 20C40 31.0457 31.0457 40 20 40C8.9543 40 0 31.0457 0 20Z" fill="white"/>
<path d="M13.4032 19.5101L22.8927 10.0207C23.3504 9.563 24.0924 9.563 24.55 10.0207L25.6568 11.1275C26.1136 11.5843 26.1145 12.3248 25.6587 12.7828L25.1596 13.2843C21.2764 17.1857 21.2764 23.4918 25.1596 27.3932L25.6587 27.8946C26.1145 28.3526 26.1136 29.0931 25.6568 29.55L24.55 30.6568C24.0923 31.1144 23.3503 31.1144 22.8927 30.6568L13.4033 21.1673C12.9456 20.7097 12.9456 19.9677 13.4032 19.5101Z" fill="#203757"/>
</svg>
